<svg xmlns="http://www.w3.org/2000/svg" width="54.237" height="56.549" viewBox="0 0 54.237 56.549">
  <g id="Group_2201" data-name="Group 2201" transform="translate(-228.451 -331.201)">
    <path id="Path_898" data-name="Path 898" d="M2.6-3a4.178,4.178,0,0,1,.246-1.58,4.141,4.141,0,0,1,.972-1.293,7.414,7.414,0,0,0,.92-1,1.759,1.759,0,0,0,.3-.983A1.5,1.5,0,0,0,4.69-8.929,1.329,1.329,0,0,0,3.673-9.3a1.46,1.46,0,0,0-1.032.361,1.269,1.269,0,0,0-.391.98H.439a2.664,2.664,0,0,1,.9-2.086,3.434,3.434,0,0,1,2.336-.767,3.352,3.352,0,0,1,2.336.76,2.72,2.72,0,0,1,.838,2.123A3.476,3.476,0,0,1,5.714-5.536l-.916.9A2.454,2.454,0,0,0,4.291-3ZM2.473-.685A.955.955,0,0,1,2.749-1.4a1.015,1.015,0,0,1,.745-.272,1.009,1.009,0,0,1,.753.279.961.961,0,0,1,.276.7A.944.944,0,0,1,4.254,0a1.012,1.012,0,0,1-.76.276A1,1,0,0,1,2.738,0,.951.951,0,0,1,2.473-.685Z" transform="translate(252.525 358.276)" fill="#bc3d81"/>
    <g id="f08c3861d74bacdfd2d33a86c11d02ab" transform="translate(241.794 331.201)">
      <path id="Path_897" data-name="Path 897" d="M17.776,2A8.044,8.044,0,0,0,9.74,10.036V13.48H8.592A4.607,4.607,0,0,0,4,18.072v11.48a4.607,4.607,0,0,0,4.592,4.592H26.96a4.607,4.607,0,0,0,4.592-4.592V18.072A4.607,4.607,0,0,0,26.96,13.48H25.812V10.036A8.044,8.044,0,0,0,17.776,2Zm0,2.3a5.7,5.7,0,0,1,5.74,5.74V13.48H12.036V10.036A5.7,5.7,0,0,1,17.776,4.3ZM8.592,15.776H26.96a2.266,2.266,0,0,1,2.3,2.3v11.48a2.266,2.266,0,0,1-2.3,2.3H8.592a2.266,2.266,0,0,1-2.3-2.3V18.072A2.266,2.266,0,0,1,8.592,15.776Z" transform="translate(-4 -2)"/>
    </g>
    <g id="Rectangle_7383" data-name="Rectangle 7383" transform="translate(228.451 368.848)" fill="#fff" stroke="#000" stroke-width="2">
      <rect width="54.237" height="18.901" rx="6" stroke="none"/>
      <rect x="1" y="1" width="52.237" height="16.901" rx="5" fill="none"/>
    </g>
    <g id="Group_2200" data-name="Group 2200" transform="translate(234.433 374.349)">
      <path id="Path_899" data-name="Path 899" d="M3.157-11.227.279-12.021.853-13.69l2.816,1.156-.221-3.107H5.338l-.23,3.169L7.845-13.6l.574,1.686-2.913.794L7.439-8.782,5.911-7.74,4.3-10.335,2.672-7.828l-1.527-1Z" transform="translate(-0.279 15.641)" fill="#bc3d81"/>
      <path id="Path_900" data-name="Path 900" d="M3.157-11.227.279-12.021.853-13.69l2.816,1.156-.221-3.107H5.338l-.23,3.169L7.845-13.6l.574,1.686-2.913.794L7.439-8.782,5.911-7.74,4.3-10.335,2.672-7.828l-1.527-1Z" transform="translate(10.614 15.641)" fill="#bc3d81"/>
      <path id="Path_901" data-name="Path 901" d="M3.157-11.227.279-12.021.853-13.69l2.816,1.156-.221-3.107H5.338l-.23,3.169L7.845-13.6l.574,1.686-2.913.794L7.439-8.782,5.911-7.74,4.3-10.335,2.672-7.828l-1.527-1Z" transform="translate(21.507 15.641)" fill="#bc3d81"/>
      <path id="Path_902" data-name="Path 902" d="M3.157-11.227.279-12.021.853-13.69l2.816,1.156-.221-3.107H5.338l-.23,3.169L7.845-13.6l.574,1.686-2.913.794L7.439-8.782,5.911-7.74,4.3-10.335,2.672-7.828l-1.527-1Z" transform="translate(32.401 15.641)" fill="#bc3d81"/>
    </g>
  </g>
</svg>
