<svg id="Component_414_1" data-name="Component 414 – 1" xmlns="http://www.w3.org/2000/svg" width="16.25" height="16.25" viewBox="0 0 16.25 16.25">
  <path id="Path_2754" data-name="Path 2754" d="M11.5,5.016a6.482,6.482,0,1,1-4.586,1.9,6.457,6.457,0,0,1,4.586-1.9m0-1.641A8.125,8.125,0,1,0,19.625,11.5,8.124,8.124,0,0,0,11.5,3.375Z" transform="translate(-3.375 -3.375)" fill="#fff"/>
  <path id="Path_2755" data-name="Path 2755" d="M17.976,16.956l-1.02,1.02-2.624-2.624-2.624,2.624-1.02-1.02,2.624-2.624-2.624-2.624,1.02-1.02,2.624,2.624,2.624-2.624,1.02,1.02-2.624,2.624Z" transform="translate(-6.207 -6.207)" fill="#fff"/>
</svg>
