<svg xmlns="http://www.w3.org/2000/svg" width="24" height="23.001" viewBox="0 0 24 23.001">
  <g id="_12d36a3d034577c8172e565b9d8c82eb" data-name="12d36a3d034577c8172e565b9d8c82eb" transform="translate(0 -0.5)">
    <path id="Path_11318" data-name="Path 11318" d="M13.5,23.5a.487.487,0,0,1-.076-.006l-13-2A.5.5,0,0,1,0,21V4a.5.5,0,0,1,.388-.487l13-3A.5.5,0,0,1,14,1V23a.5.5,0,0,1-.5.5ZM1,20.571l12,1.846V1.628L1,4.4Z" fill="#FCA311"/>
    <path id="Path_11319" data-name="Path 11319" d="M23.5,21.5h-10a.5.5,0,0,1,0-1H23V3.5H13.5a.5.5,0,0,1,0-1h10A.5.5,0,0,1,24,3V21A.5.5,0,0,1,23.5,21.5Zm-14-5a.5.5,0,0,1-.424-.235l-5-8a.5.5,0,1,1,.848-.53l5,8A.5.5,0,0,1,9.5,16.5Z" fill="#FCA311"/>
    <path id="Path_11320" data-name="Path 11320" d="M4.5,16.5a.5.5,0,0,1-.424-.765l5-8a.5.5,0,1,1,.848.53l-5,8A.5.5,0,0,1,4.5,16.5Zm13,5A.5.5,0,0,1,17,21V3a.5.5,0,0,1,1,0V21A.5.5,0,0,1,17.5,21.5Z" fill="#FCA311"/>
    <path id="Path_11321" data-name="Path 11321" d="M23.5,18.5h-10a.5.5,0,0,1,0-1h10a.5.5,0,0,1,0,1Zm0-3h-10a.5.5,0,0,1,0-1h10a.5.5,0,0,1,0,1Zm0-3h-10a.5.5,0,0,1,0-1h10a.5.5,0,0,1,0,1Zm0-3h-10a.5.5,0,0,1,0-1h10a.5.5,0,0,1,0,1Zm0-3h-10a.5.5,0,0,1,0-1h10a.5.5,0,0,1,0,1Z" fill="#FCA311"/>
  </g>
</svg>
