<svg id="Component_262_188" data-name="Component 262 – 188" xmlns="http://www.w3.org/2000/svg" width="35.353" height="36.266" viewBox="0 0 35.353 36.266">
  <path id="Path_10706" data-name="Path 10706" d="M40.515,28.883a3.057,3.057,0,0,0-4.422-.111l-3.871,3.88a.68.68,0,1,0,.964.961l3.871-3.88a1.751,1.751,0,0,1,2.474,2.475l-9.746,9.765a2.658,2.658,0,0,1-1.5.743c-3.375.466-7.874,1.081-11.088,1.528l-3.653-3.653a.681.681,0,1,0-.961.964l4.264,4.263-2.554,2.558L7.376,41.449,9.93,38.893l.253.254a.7.7,0,0,0,.964,0c.216-.2,4.993-5.019,5.115-5.122a2.314,2.314,0,0,1,1.494-.6c.266,0,9.847-.007,9.916,0A1.689,1.689,0,0,1,27.6,36.8c-.157,0-5.93.006-5.971.01a.681.681,0,0,0,.043,1.36l5.069-.007c2.15.213,3.905-.938,3.908-3.149a3.09,3.09,0,0,0-3.05-2.951c-.368.014-9.755-.008-9.945.006a3.662,3.662,0,0,0-2.409,1.047c-.059.059-4.568,4.685-4.667,4.591a1.423,1.423,0,0,0-1.613.227c-.037.037-2.527,2.525-2.6,2.605a1.394,1.394,0,0,0,.048,1.876c.178.174,6.921,6.934,6.961,6.967a1.387,1.387,0,0,0,1.886-.043c.047-.047,2.493-2.494,2.6-2.6A1.344,1.344,0,0,0,18.2,45.9c.051-.149-.138-.453.069-.432,3.023-.418,9.187-1.264,10.308-1.422a4.174,4.174,0,0,0,2.164-1.111C31,42.676,40.5,33.17,40.558,33.1a3.059,3.059,0,0,0-.043-4.22Z" transform="translate(-6.027 -13.462)" fill="#fff"/>
  <path id="Path_10707" data-name="Path 10707" d="M19.093,15.259a.592.592,0,0,0-.593.593v2.37A1.78,1.78,0,0,0,20.278,20H32.722A1.78,1.78,0,0,0,34.5,18.222V5.778A1.78,1.78,0,0,0,32.722,4C29.03,4,23.975,4,20.278,4A1.78,1.78,0,0,0,18.5,5.778V15.861a.593.593,0,1,0,1.185,0V5.778a.593.593,0,0,1,.593-.593h3.556V8.148a1.187,1.187,0,0,0,1.185,1.185h2.963a1.187,1.187,0,0,0,1.185-1.185V5.185h3.556a.593.593,0,0,1,.593.593V18.222a.593.593,0,0,1-.593.593H20.278a.593.593,0,0,1-.593-.593v-2.37A.592.592,0,0,0,19.093,15.259Zm8.889-7.111H25.019V5.185h2.963Z" transform="translate(-7.824 -4)" fill="#fff"/>
</svg>
